{
    "asset" : {
        "generator" : "Khronos glTF Blender I/O v1.1.46",
        "version" : "2.0"
    },
    "scene" : 0,
    "scenes" : [
        {
            "name" : "Scene",
            "nodes" : [
                0,
                1,
                2,
                3
            ]
        }
    ],
    "nodes" : [
        {
            "name" : "Light",
            "rotation" : [
                0.16907575726509094,
                0.7558803558349609,
                -0.27217137813568115,
                0.570947527885437
            ],
            "translation" : [
                4.076245307922363,
                5.903861999511719,
                -1.0054539442062378
            ]
        },
        {
            "name" : "Camera",
            "rotation" : [
                0.4591415226459503,
                0.402736634016037,
                -0.24563883244991302,
                0.752764105796814
            ],
            "translation" : [
                8.116540908813477,
                6.764508247375488,
                -6.236724376678467
            ]
        },
        {
            "mesh" : 0,
            "name" : "Sphere",
            "translation" : [
                -0.10683923959732056,
                1.5500457286834717,
                -0.07486498355865479
            ]
        },
        {
            "name" : "Area",
            "rotation" : [
                0,
                0,
                0.8810897469520569,
                0.4729490578174591
            ],
            "scale" : [
                6.585833549499512,
                6.585833549499512,
                6.585833549499512
            ],
            "translation" : [
                -3.224336624145508,
                4.53432559967041,
                0.6901491284370422
            ]
        }
    ],
    "animations" : [
        {
            "channels" : [
                {
                    "sampler" : 0,
                    "target" : {
                        "node" : 1,
                        "path" : "translation"
                    }
                },
                {
                    "sampler" : 1,
                    "target" : {
                        "node" : 1,
                        "path" : "rotation"
                    }
                }
            ],
            "name" : "CameraAction",
            "samplers" : [
                {
                    "input" : 4,
                    "interpolation" : "LINEAR",
                    "output" : 5
                },
                {
                    "input" : 6,
                    "interpolation" : "LINEAR",
                    "output" : 7
                }
            ]
        },
        {
            "channels" : [
                {
                    "sampler" : 0,
                    "target" : {
                        "node" : 2,
                        "path" : "translation"
                    }
                },
                {
                    "sampler" : 1,
                    "target" : {
                        "node" : 2,
                        "path" : "rotation"
                    }
                },
                {
                    "sampler" : 2,
                    "target" : {
                        "node" : 2,
                        "path" : "scale"
                    }
                }
            ],
            "name" : "SphereAction",
            "samplers" : [
                {
                    "input" : 8,
                    "interpolation" : "LINEAR",
                    "output" : 9
                },
                {
                    "input" : 8,
                    "interpolation" : "LINEAR",
                    "output" : 10
                },
                {
                    "input" : 8,
                    "interpolation" : "LINEAR",
                    "output" : 11
                }
            ]
        }
    ],
    "materials" : [
        {
            "doubleSided" : true,
            "emissiveFactor" : [
                0,
                0,
                0
            ],
            "name" : "Material.001",
            "pbrMetallicRoughness" : {
                "baseColorFactor" : [
                    1,
                    1,
                    1,
                    1
                ],
                "metallicFactor" : 0,
                "roughnessFactor" : 0.4761904776096344
            }
        }
    ],
    "meshes" : [
        {
            "name" : "Sphere",
            "primitives" : [
                {
                    "attributes" : {
                        "POSITION" : 0,
                        "NORMAL" : 1,
                        "TEXCOORD_0" : 2
                    },
                    "indices" : 3,
                    "material" : 0
                }
            ]
        }
    ],
    "accessors" : [
        {
            "bufferView" : 0,
            "componentType" : 5126,
            "count" : 4223,
            "max" : [
                0.6330770254135132,
                0.8267605304718018,
                0.8562725186347961
            ],
            "min" : [
                -0.5833415389060974,
                -2.3028080463409424,
                -0.7924615144729614
            ],
            "type" : "VEC3"
        },
        {
            "bufferView" : 1,
            "componentType" : 5126,
            "count" : 4223,
            "type" : "VEC3"
        },
        {
            "bufferView" : 2,
            "componentType" : 5126,
            "count" : 4223,
            "type" : "VEC2"
        },
        {
            "bufferView" : 3,
            "componentType" : 5123,
            "count" : 24192,
            "type" : "SCALAR"
        },
        {
            "bufferView" : 4,
            "componentType" : 5126,
            "count" : 146,
            "max" : [
                9.166666666666666
            ],
            "min" : [
                3.125
            ],
            "type" : "SCALAR"
        },
        {
            "bufferView" : 5,
            "componentType" : 5126,
            "count" : 146,
            "type" : "VEC3"
        },
        {
            "bufferView" : 6,
            "componentType" : 5126,
            "count" : 129,
            "max" : [
                9.166666666666666
            ],
            "min" : [
                3.8333333333333335
            ],
            "type" : "SCALAR"
        },
        {
            "bufferView" : 7,
            "componentType" : 5126,
            "count" : 129,
            "type" : "VEC4"
        },
        {
            "bufferView" : 8,
            "componentType" : 5126,
            "count" : 220,
            "max" : [
                9.166666666666666
            ],
            "min" : [
                0.041666666666666664
            ],
            "type" : "SCALAR"
        },
        {
            "bufferView" : 9,
            "componentType" : 5126,
            "count" : 220,
            "type" : "VEC3"
        },
        {
            "bufferView" : 10,
            "componentType" : 5126,
            "count" : 220,
            "type" : "VEC4"
        },
        {
            "bufferView" : 11,
            "componentType" : 5126,
            "count" : 220,
            "type" : "VEC3"
        }
    ],
    "bufferViews" : [
        {
            "buffer" : 0,
            "byteLength" : 50676,
            "byteOffset" : 0
        },
        {
            "buffer" : 0,
            "byteLength" : 50676,
            "byteOffset" : 50676
        },
        {
            "buffer" : 0,
            "byteLength" : 33784,
            "byteOffset" : 101352
        },
        {
            "buffer" : 0,
            "byteLength" : 48384,
            "byteOffset" : 135136
        },
        {
            "buffer" : 0,
            "byteLength" : 584,
            "byteOffset" : 183520
        },
        {
            "buffer" : 0,
            "byteLength" : 1752,
            "byteOffset" : 184104
        },
        {
            "buffer" : 0,
            "byteLength" : 516,
            "byteOffset" : 185856
        },
        {
            "buffer" : 0,
            "byteLength" : 2064,
            "byteOffset" : 186372
        },
        {
            "buffer" : 0,
            "byteLength" : 880,
            "byteOffset" : 188436
        },
        {
            "buffer" : 0,
            "byteLength" : 2640,
            "byteOffset" : 189316
        },
        {
            "buffer" : 0,
            "byteLength" : 3520,
            "byteOffset" : 191956
        },
        {
            "buffer" : 0,
            "byteLength" : 2640,
            "byteOffset" : 195476
        }
    ],
    "buffers" : [
        {
            "byteLength" : 198116,
            "uri" : "data:application/octet-stream;base64,"
        }
    ]
}
