{
    "asset" : {
        "generator" : "Khronos glTF Blender I/O v1.1.46",
        "version" : "2.0"
    },
    "scene" : 0,
    "scenes" : [
        {
            "name" : "Scene",
            "nodes" : [
                0,
                1,
                2,
                3,
                4,
                5
            ]
        }
    ],
    "nodes" : [
        {
            "name" : "Light",
            "rotation" : [
                0.16907575726509094,
                0.7558803558349609,
                -0.27217137813568115,
                0.570947527885437
            ],
            "translation" : [
                4.076245307922363,
                5.903861999511719,
                -1.0054539442062378
            ]
        },
        {
            "name" : "Camera",
            "rotation" : [
                0.4591415226459503,
                0.402736634016037,
                -0.24563883244991302,
                0.752764105796814
            ],
            "translation" : [
                8.116540908813477,
                6.764508247375488,
                -6.236724376678467
            ]
        },
        {
            "mesh" : 0,
            "name" : "Sphere",
            "translation" : [
                -0.10683923959732056,
                1.5500457286834717,
                -0.07486498355865479
            ]
        },
        {
            "name" : "Area",
            "rotation" : [
                0,
                0,
                0.8810897469520569,
                0.4729490578174591
            ],
            "scale" : [
                6.585833549499512,
                6.585833549499512,
                6.585833549499512
            ],
            "translation" : [
                -3.224336624145508,
                4.53432559967041,
                0.6901491284370422
            ]
        },
        {
            "mesh" : 1,
            "name" : "Cube",
            "rotation" : [
                0.005611156579107046,
                -0.05881199985742569,
                -0.09481116384267807,
                0.9937406778335571
            ],
            "scale" : [
                0.017690058797597885,
                0.3688950836658478,
                0.3464444875717163
            ],
            "translation" : [
                -0.5953556895256042,
                2.484506607055664,
                -0.3987882137298584
            ]
        },
        {
            "mesh" : 2,
            "name" : "Cube.001",
            "rotation" : [
                -0.019417326897382736,
                0.00291874585673213,
                -0.24719876050949097,
                0.9687658548355103
            ],
            "scale" : [
                0.11329099535942078,
                0.37988802790641785,
                0.30814921855926514
            ],
            "translation" : [
                -0.43635094165802,
                2.7617900371551514,
                0.41346216201782227
            ]
        }
    ],
    "animations" : [
        {
            "channels" : [
                {
                    "sampler" : 0,
                    "target" : {
                        "node" : 1,
                        "path" : "translation"
                    }
                },
                {
                    "sampler" : 1,
                    "target" : {
                        "node" : 1,
                        "path" : "rotation"
                    }
                }
            ],
            "name" : "CameraAction",
            "samplers" : [
                {
                    "input" : 12,
                    "interpolation" : "LINEAR",
                    "output" : 13
                },
                {
                    "input" : 14,
                    "interpolation" : "LINEAR",
                    "output" : 15
                }
            ]
        },
        {
            "channels" : [
                {
                    "sampler" : 0,
                    "target" : {
                        "node" : 2,
                        "path" : "translation"
                    }
                },
                {
                    "sampler" : 1,
                    "target" : {
                        "node" : 2,
                        "path" : "rotation"
                    }
                },
                {
                    "sampler" : 2,
                    "target" : {
                        "node" : 2,
                        "path" : "scale"
                    }
                }
            ],
            "name" : "SphereAction",
            "samplers" : [
                {
                    "input" : 16,
                    "interpolation" : "LINEAR",
                    "output" : 17
                },
                {
                    "input" : 16,
                    "interpolation" : "LINEAR",
                    "output" : 18
                },
                {
                    "input" : 16,
                    "interpolation" : "LINEAR",
                    "output" : 19
                }
            ]
        },
        {
            "channels" : [
                {
                    "sampler" : 0,
                    "target" : {
                        "node" : 4,
                        "path" : "translation"
                    }
                },
                {
                    "sampler" : 1,
                    "target" : {
                        "node" : 4,
                        "path" : "rotation"
                    }
                },
                {
                    "sampler" : 2,
                    "target" : {
                        "node" : 4,
                        "path" : "scale"
                    }
                }
            ],
            "name" : "CubeAction",
            "samplers" : [
                {
                    "input" : 20,
                    "interpolation" : "STEP",
                    "output" : 21
                },
                {
                    "input" : 20,
                    "interpolation" : "STEP",
                    "output" : 22
                },
                {
                    "input" : 20,
                    "interpolation" : "STEP",
                    "output" : 23
                }
            ]
        },
        {
            "channels" : [
                {
                    "sampler" : 0,
                    "target" : {
                        "node" : 5,
                        "path" : "translation"
                    }
                },
                {
                    "sampler" : 1,
                    "target" : {
                        "node" : 5,
                        "path" : "rotation"
                    }
                },
                {
                    "sampler" : 2,
                    "target" : {
                        "node" : 5,
                        "path" : "scale"
                    }
                }
            ],
            "name" : "CubeAction.001",
            "samplers" : [
                {
                    "input" : 20,
                    "interpolation" : "STEP",
                    "output" : 24
                },
                {
                    "input" : 20,
                    "interpolation" : "STEP",
                    "output" : 25
                },
                {
                    "input" : 20,
                    "interpolation" : "STEP",
                    "output" : 26
                }
            ]
        }
    ],
    "materials" : [
        {
            "doubleSided" : true,
            "emissiveFactor" : [
                0,
                0,
                0
            ],
            "name" : "Material.001",
            "pbrMetallicRoughness" : {
                "baseColorFactor" : [
                    1,
                    1,
                    1,
                    1
                ],
                "metallicFactor" : 0,
                "roughnessFactor" : 0.4761904776096344
            }
        },
        {
            "doubleSided" : true,
            "emissiveFactor" : [
                0,
                0,
                0
            ],
            "name" : "Material",
            "pbrMetallicRoughness" : {
                "baseColorFactor" : [
                    0,
                    0,
                    0,
                    1
                ],
                "metallicFactor" : 0,
                "roughnessFactor" : 0.5
            }
        },
        {
            "doubleSided" : true,
            "emissiveFactor" : [
                0,
                0,
                0
            ],
            "name" : "Material.003",
            "pbrMetallicRoughness" : {
                "baseColorFactor" : [
                    0,
                    0,
                    0,
                    1
                ],
                "metallicFactor" : 0,
                "roughnessFactor" : 0.5
            }
        }
    ],
    "meshes" : [
        {
            "name" : "Sphere",
            "primitives" : [
                {
                    "attributes" : {
                        "POSITION" : 0,
                        "NORMAL" : 1,
                        "TEXCOORD_0" : 2
                    },
                    "indices" : 3,
                    "material" : 0
                }
            ]
        },
        {
            "name" : "Cube",
            "primitives" : [
                {
                    "attributes" : {
                        "POSITION" : 4,
                        "NORMAL" : 5,
                        "TEXCOORD_0" : 6
                    },
                    "indices" : 7,
                    "material" : 1
                }
            ]
        },
        {
            "name" : "Cube.001",
            "primitives" : [
                {
                    "attributes" : {
                        "POSITION" : 8,
                        "NORMAL" : 9,
                        "TEXCOORD_0" : 10
                    },
                    "indices" : 11,
                    "material" : 2
                }
            ]
        }
    ],
    "accessors" : [
        {
            "bufferView" : 0,
            "componentType" : 5126,
            "count" : 4714,
            "max" : [
                0.6330770254135132,
                0.8216456770896912,
                0.8562725186347961
            ],
            "min" : [
                -0.5833415389060974,
                -2.3028080463409424,
                -0.7924615144729614
            ],
            "type" : "VEC3"
        },
        {
            "bufferView" : 1,
            "componentType" : 5126,
            "count" : 4714,
            "type" : "VEC3"
        },
        {
            "bufferView" : 2,
            "componentType" : 5126,
            "count" : 4714,
            "type" : "VEC2"
        },
        {
            "bufferView" : 3,
            "componentType" : 5123,
            "count" : 26196,
            "type" : "SCALAR"
        },
        {
            "bufferView" : 4,
            "componentType" : 5126,
            "count" : 640,
            "max" : [
                1.0262656211853027,
                0.9571703672409058,
                1.006907343864441
            ],
            "min" : [
                -1.0262399911880493,
                -1,
                -1
            ],
            "type" : "VEC3"
        },
        {
            "bufferView" : 5,
            "componentType" : 5126,
            "count" : 640,
            "type" : "VEC3"
        },
        {
            "bufferView" : 6,
            "componentType" : 5126,
            "count" : 640,
            "type" : "VEC2"
        },
        {
            "bufferView" : 7,
            "componentType" : 5123,
            "count" : 960,
            "type" : "SCALAR"
        },
        {
            "bufferView" : 8,
            "componentType" : 5126,
            "count" : 640,
            "max" : [
                1,
                0.9571703672409058,
                0.9941147565841675
            ],
            "min" : [
                -1,
                -1,
                -1
            ],
            "type" : "VEC3"
        },
        {
            "bufferView" : 9,
            "componentType" : 5126,
            "count" : 640,
            "type" : "VEC3"
        },
        {
            "bufferView" : 10,
            "componentType" : 5126,
            "count" : 640,
            "type" : "VEC2"
        },
        {
            "bufferView" : 11,
            "componentType" : 5123,
            "count" : 960,
            "type" : "SCALAR"
        },
        {
            "bufferView" : 12,
            "componentType" : 5126,
            "count" : 146,
            "max" : [
                9.166666666666666
            ],
            "min" : [
                3.125
            ],
            "type" : "SCALAR"
        },
        {
            "bufferView" : 13,
            "componentType" : 5126,
            "count" : 146,
            "type" : "VEC3"
        },
        {
            "bufferView" : 14,
            "componentType" : 5126,
            "count" : 129,
            "max" : [
                9.166666666666666
            ],
            "min" : [
                3.8333333333333335
            ],
            "type" : "SCALAR"
        },
        {
            "bufferView" : 15,
            "componentType" : 5126,
            "count" : 129,
            "type" : "VEC4"
        },
        {
            "bufferView" : 16,
            "componentType" : 5126,
            "count" : 220,
            "max" : [
                9.166666666666666
            ],
            "min" : [
                0.041666666666666664
            ],
            "type" : "SCALAR"
        },
        {
            "bufferView" : 17,
            "componentType" : 5126,
            "count" : 220,
            "type" : "VEC3"
        },
        {
            "bufferView" : 18,
            "componentType" : 5126,
            "count" : 220,
            "type" : "VEC4"
        },
        {
            "bufferView" : 19,
            "componentType" : 5126,
            "count" : 220,
            "type" : "VEC3"
        },
        {
            "bufferView" : 20,
            "componentType" : 5126,
            "count" : 1,
            "max" : [
                4.333333333333333
            ],
            "min" : [
                4.333333333333333
            ],
            "type" : "SCALAR"
        },
        {
            "bufferView" : 21,
            "componentType" : 5126,
            "count" : 1,
            "type" : "VEC3"
        },
        {
            "bufferView" : 22,
            "componentType" : 5126,
            "count" : 1,
            "type" : "VEC4"
        },
        {
            "bufferView" : 23,
            "componentType" : 5126,
            "count" : 1,
            "type" : "VEC3"
        },
        {
            "bufferView" : 24,
            "componentType" : 5126,
            "count" : 1,
            "type" : "VEC3"
        },
        {
            "bufferView" : 25,
            "componentType" : 5126,
            "count" : 1,
            "type" : "VEC4"
        },
        {
            "bufferView" : 26,
            "componentType" : 5126,
            "count" : 1,
            "type" : "VEC3"
        }
    ],
    "bufferViews" : [
        {
            "buffer" : 0,
            "byteLength" : 56568,
            "byteOffset" : 0
        },
        {
            "buffer" : 0,
            "byteLength" : 56568,
            "byteOffset" : 56568
        },
        {
            "buffer" : 0,
            "byteLength" : 37712,
            "byteOffset" : 113136
        },
        {
            "buffer" : 0,
            "byteLength" : 52392,
            "byteOffset" : 150848
        },
        {
            "buffer" : 0,
            "byteLength" : 7680,
            "byteOffset" : 203240
        },
        {
            "buffer" : 0,
            "byteLength" : 7680,
            "byteOffset" : 210920
        },
        {
            "buffer" : 0,
            "byteLength" : 5120,
            "byteOffset" : 218600
        },
        {
            "buffer" : 0,
            "byteLength" : 1920,
            "byteOffset" : 223720
        },
        {
            "buffer" : 0,
            "byteLength" : 7680,
            "byteOffset" : 225640
        },
        {
            "buffer" : 0,
            "byteLength" : 7680,
            "byteOffset" : 233320
        },
        {
            "buffer" : 0,
            "byteLength" : 5120,
            "byteOffset" : 241000
        },
        {
            "buffer" : 0,
            "byteLength" : 1920,
            "byteOffset" : 246120
        },
        {
            "buffer" : 0,
            "byteLength" : 584,
            "byteOffset" : 248040
        },
        {
            "buffer" : 0,
            "byteLength" : 1752,
            "byteOffset" : 248624
        },
        {
            "buffer" : 0,
            "byteLength" : 516,
            "byteOffset" : 250376
        },
        {
            "buffer" : 0,
            "byteLength" : 2064,
            "byteOffset" : 250892
        },
        {
            "buffer" : 0,
            "byteLength" : 880,
            "byteOffset" : 252956
        },
        {
            "buffer" : 0,
            "byteLength" : 2640,
            "byteOffset" : 253836
        },
        {
            "buffer" : 0,
            "byteLength" : 3520,
            "byteOffset" : 256476
        },
        {
            "buffer" : 0,
            "byteLength" : 2640,
            "byteOffset" : 259996
        },
        {
            "buffer" : 0,
            "byteLength" : 4,
            "byteOffset" : 262636
        },
        {
            "buffer" : 0,
            "byteLength" : 12,
            "byteOffset" : 262640
        },
        {
            "buffer" : 0,
            "byteLength" : 16,
            "byteOffset" : 262652
        },
        {
            "buffer" : 0,
            "byteLength" : 12,
            "byteOffset" : 262668
        },
        {
            "buffer" : 0,
            "byteLength" : 12,
            "byteOffset" : 262680
        },
        {
            "buffer" : 0,
            "byteLength" : 16,
            "byteOffset" : 262692
        },
        {
            "buffer" : 0,
            "byteLength" : 12,
            "byteOffset" : 262708
        }
    ],
    "buffers" : [
        {
            "byteLength" : 262720,
            "uri" : "data:application/octet-stream;base64,"
        }
    ]
}
