{
    "asset" : {
        "generator" : "Khronos glTF Blender I/O v1.1.46",
        "version" : "2.0"
    },
    "scene" : 0,
    "scenes" : [
        {
            "name" : "Scene",
            "nodes" : [
                0,
                1,
                2,
                3,
                4,
                5
            ]
        }
    ],
    "nodes" : [
        {
            "name" : "Light",
            "rotation" : [
                0.16907575726509094,
                0.7558803558349609,
                -0.27217137813568115,
                0.570947527885437
            ],
            "translation" : [
                4.076245307922363,
                5.903861999511719,
                -1.0054539442062378
            ]
        },
        {
            "name" : "Camera",
            "rotation" : [
                0.4591415226459503,
                0.402736634016037,
                -0.24563883244991302,
                0.752764105796814
            ],
            "translation" : [
                8.116540908813477,
                6.764508247375488,
                -6.236724376678467
            ]
        },
        {
            "mesh" : 0,
            "name" : "Sphere",
            "translation" : [
                -0.10683923959732056,
                1.5500457286834717,
                -0.07486498355865479
            ]
        },
        {
            "name" : "Area",
            "rotation" : [
                0,
                0,
                0.8810897469520569,
                0.4729490578174591
            ],
            "scale" : [
                6.585833549499512,
                6.585833549499512,
                6.585833549499512
            ],
            "translation" : [
                -3.224336624145508,
                4.53432559967041,
                0.6901491284370422
            ]
        },
        {
            "mesh" : 1,
            "name" : "bulet",
            "scale" : [
                0.4875653088092804,
                0.5700221657752991,
                0.6171808838844299
            ],
            "translation" : [
                -0.1260244995355606,
                2.511359214782715,
                0.17283287644386292
            ]
        },
        {
            "mesh" : 2,
            "name" : "bulet.001",
            "scale" : [
                0.32137739658355713,
                0.2620011270046234,
                0.4557613730430603
            ],
            "translation" : [
                -0.006156936287879944,
                2.7804601192474365,
                -0.25743547081947327
            ]
        }
    ],
    "animations" : [
        {
            "channels" : [
                {
                    "sampler" : 0,
                    "target" : {
                        "node" : 1,
                        "path" : "translation"
                    }
                },
                {
                    "sampler" : 1,
                    "target" : {
                        "node" : 1,
                        "path" : "rotation"
                    }
                }
            ],
            "name" : "CameraAction",
            "samplers" : [
                {
                    "input" : 12,
                    "interpolation" : "LINEAR",
                    "output" : 13
                },
                {
                    "input" : 14,
                    "interpolation" : "LINEAR",
                    "output" : 15
                }
            ]
        },
        {
            "channels" : [
                {
                    "sampler" : 0,
                    "target" : {
                        "node" : 2,
                        "path" : "translation"
                    }
                },
                {
                    "sampler" : 1,
                    "target" : {
                        "node" : 2,
                        "path" : "rotation"
                    }
                },
                {
                    "sampler" : 2,
                    "target" : {
                        "node" : 2,
                        "path" : "scale"
                    }
                }
            ],
            "name" : "SphereAction",
            "samplers" : [
                {
                    "input" : 16,
                    "interpolation" : "LINEAR",
                    "output" : 17
                },
                {
                    "input" : 16,
                    "interpolation" : "LINEAR",
                    "output" : 18
                },
                {
                    "input" : 16,
                    "interpolation" : "LINEAR",
                    "output" : 19
                }
            ]
        },
        {
            "channels" : [
                {
                    "sampler" : 0,
                    "target" : {
                        "node" : 4,
                        "path" : "translation"
                    }
                },
                {
                    "sampler" : 1,
                    "target" : {
                        "node" : 4,
                        "path" : "rotation"
                    }
                },
                {
                    "sampler" : 2,
                    "target" : {
                        "node" : 4,
                        "path" : "scale"
                    }
                }
            ],
            "name" : "Sphere.001Action",
            "samplers" : [
                {
                    "input" : 20,
                    "interpolation" : "STEP",
                    "output" : 21
                },
                {
                    "input" : 20,
                    "interpolation" : "STEP",
                    "output" : 22
                },
                {
                    "input" : 20,
                    "interpolation" : "STEP",
                    "output" : 23
                }
            ]
        },
        {
            "channels" : [
                {
                    "sampler" : 0,
                    "target" : {
                        "node" : 5,
                        "path" : "translation"
                    }
                },
                {
                    "sampler" : 1,
                    "target" : {
                        "node" : 5,
                        "path" : "rotation"
                    }
                },
                {
                    "sampler" : 2,
                    "target" : {
                        "node" : 5,
                        "path" : "scale"
                    }
                }
            ],
            "name" : "Sphere.001Action.001",
            "samplers" : [
                {
                    "input" : 20,
                    "interpolation" : "STEP",
                    "output" : 24
                },
                {
                    "input" : 20,
                    "interpolation" : "STEP",
                    "output" : 25
                },
                {
                    "input" : 20,
                    "interpolation" : "STEP",
                    "output" : 26
                }
            ]
        }
    ],
    "materials" : [
        {
            "doubleSided" : true,
            "emissiveFactor" : [
                0,
                0,
                0
            ],
            "name" : "Material.004",
            "pbrMetallicRoughness" : {
                "baseColorFactor" : [
                    1,
                    1,
                    1,
                    1
                ],
                "metallicFactor" : 0,
                "roughnessFactor" : 0.5
            }
        },
        {
            "doubleSided" : true,
            "name" : "Material",
            "pbrMetallicRoughness" : {}
        },
        {
            "doubleSided" : true,
            "name" : "Material.003",
            "pbrMetallicRoughness" : {}
        }
    ],
    "meshes" : [
        {
            "name" : "Sphere",
            "primitives" : [
                {
                    "attributes" : {
                        "POSITION" : 0,
                        "NORMAL" : 1,
                        "TEXCOORD_0" : 2
                    },
                    "indices" : 3,
                    "material" : 0
                }
            ]
        },
        {
            "name" : "Sphere.001",
            "primitives" : [
                {
                    "attributes" : {
                        "POSITION" : 4,
                        "NORMAL" : 5,
                        "TEXCOORD_0" : 6
                    },
                    "indices" : 7,
                    "material" : 1
                }
            ]
        },
        {
            "name" : "Sphere.002",
            "primitives" : [
                {
                    "attributes" : {
                        "POSITION" : 8,
                        "NORMAL" : 9,
                        "TEXCOORD_0" : 10
                    },
                    "indices" : 11,
                    "material" : 2
                }
            ]
        }
    ],
    "accessors" : [
        {
            "bufferView" : 0,
            "componentType" : 5126,
            "count" : 4223,
            "max" : [
                0.6330770254135132,
                0.8267605304718018,
                0.8562725186347961
            ],
            "min" : [
                -0.5833415389060974,
                -2.3028080463409424,
                -0.7924615144729614
            ],
            "type" : "VEC3"
        },
        {
            "bufferView" : 1,
            "componentType" : 5126,
            "count" : 4223,
            "type" : "VEC3"
        },
        {
            "bufferView" : 2,
            "componentType" : 5126,
            "count" : 4223,
            "type" : "VEC2"
        },
        {
            "bufferView" : 3,
            "componentType" : 5123,
            "count" : 24192,
            "type" : "SCALAR"
        },
        {
            "bufferView" : 4,
            "componentType" : 5126,
            "count" : 2160,
            "max" : [
                1.000000238418579,
                1,
                0.923879861831665
            ],
            "min" : [
                -0.9999998211860657,
                -1,
                -1
            ],
            "type" : "VEC3"
        },
        {
            "bufferView" : 5,
            "componentType" : 5126,
            "count" : 2160,
            "type" : "VEC3"
        },
        {
            "bufferView" : 6,
            "componentType" : 5126,
            "count" : 2160,
            "type" : "VEC2"
        },
        {
            "bufferView" : 7,
            "componentType" : 5123,
            "count" : 3144,
            "type" : "SCALAR"
        },
        {
            "bufferView" : 8,
            "componentType" : 5126,
            "count" : 1984,
            "max" : [
                1.000000238418579,
                1,
                1.0000003576278687
            ],
            "min" : [
                -0.9999998211860657,
                -1,
                -1
            ],
            "type" : "VEC3"
        },
        {
            "bufferView" : 9,
            "componentType" : 5126,
            "count" : 1984,
            "type" : "VEC3"
        },
        {
            "bufferView" : 10,
            "componentType" : 5126,
            "count" : 1984,
            "type" : "VEC2"
        },
        {
            "bufferView" : 11,
            "componentType" : 5123,
            "count" : 2880,
            "type" : "SCALAR"
        },
        {
            "bufferView" : 12,
            "componentType" : 5126,
            "count" : 146,
            "max" : [
                9.166666666666666
            ],
            "min" : [
                3.125
            ],
            "type" : "SCALAR"
        },
        {
            "bufferView" : 13,
            "componentType" : 5126,
            "count" : 146,
            "type" : "VEC3"
        },
        {
            "bufferView" : 14,
            "componentType" : 5126,
            "count" : 129,
            "max" : [
                9.166666666666666
            ],
            "min" : [
                3.8333333333333335
            ],
            "type" : "SCALAR"
        },
        {
            "bufferView" : 15,
            "componentType" : 5126,
            "count" : 129,
            "type" : "VEC4"
        },
        {
            "bufferView" : 16,
            "componentType" : 5126,
            "count" : 220,
            "max" : [
                9.166666666666666
            ],
            "min" : [
                0.041666666666666664
            ],
            "type" : "SCALAR"
        },
        {
            "bufferView" : 17,
            "componentType" : 5126,
            "count" : 220,
            "type" : "VEC3"
        },
        {
            "bufferView" : 18,
            "componentType" : 5126,
            "count" : 220,
            "type" : "VEC4"
        },
        {
            "bufferView" : 19,
            "componentType" : 5126,
            "count" : 220,
            "type" : "VEC3"
        },
        {
            "bufferView" : 20,
            "componentType" : 5126,
            "count" : 1,
            "max" : [
                4.333333333333333
            ],
            "min" : [
                4.333333333333333
            ],
            "type" : "SCALAR"
        },
        {
            "bufferView" : 21,
            "componentType" : 5126,
            "count" : 1,
            "type" : "VEC3"
        },
        {
            "bufferView" : 22,
            "componentType" : 5126,
            "count" : 1,
            "type" : "VEC4"
        },
        {
            "bufferView" : 23,
            "componentType" : 5126,
            "count" : 1,
            "type" : "VEC3"
        },
        {
            "bufferView" : 24,
            "componentType" : 5126,
            "count" : 1,
            "type" : "VEC3"
        },
        {
            "bufferView" : 25,
            "componentType" : 5126,
            "count" : 1,
            "type" : "VEC4"
        },
        {
            "bufferView" : 26,
            "componentType" : 5126,
            "count" : 1,
            "type" : "VEC3"
        }
    ],
    "bufferViews" : [
        {
            "buffer" : 0,
            "byteLength" : 50676,
            "byteOffset" : 0
        },
        {
            "buffer" : 0,
            "byteLength" : 50676,
            "byteOffset" : 50676
        },
        {
            "buffer" : 0,
            "byteLength" : 33784,
            "byteOffset" : 101352
        },
        {
            "buffer" : 0,
            "byteLength" : 48384,
            "byteOffset" : 135136
        },
        {
            "buffer" : 0,
            "byteLength" : 25920,
            "byteOffset" : 183520
        },
        {
            "buffer" : 0,
            "byteLength" : 25920,
            "byteOffset" : 209440
        },
        {
            "buffer" : 0,
            "byteLength" : 17280,
            "byteOffset" : 235360
        },
        {
            "buffer" : 0,
            "byteLength" : 6288,
            "byteOffset" : 252640
        },
        {
            "buffer" : 0,
            "byteLength" : 23808,
            "byteOffset" : 258928
        },
        {
            "buffer" : 0,
            "byteLength" : 23808,
            "byteOffset" : 282736
        },
        {
            "buffer" : 0,
            "byteLength" : 15872,
            "byteOffset" : 306544
        },
        {
            "buffer" : 0,
            "byteLength" : 5760,
            "byteOffset" : 322416
        },
        {
            "buffer" : 0,
            "byteLength" : 584,
            "byteOffset" : 328176
        },
        {
            "buffer" : 0,
            "byteLength" : 1752,
            "byteOffset" : 328760
        },
        {
            "buffer" : 0,
            "byteLength" : 516,
            "byteOffset" : 330512
        },
        {
            "buffer" : 0,
            "byteLength" : 2064,
            "byteOffset" : 331028
        },
        {
            "buffer" : 0,
            "byteLength" : 880,
            "byteOffset" : 333092
        },
        {
            "buffer" : 0,
            "byteLength" : 2640,
            "byteOffset" : 333972
        },
        {
            "buffer" : 0,
            "byteLength" : 3520,
            "byteOffset" : 336612
        },
        {
            "buffer" : 0,
            "byteLength" : 2640,
            "byteOffset" : 340132
        },
        {
            "buffer" : 0,
            "byteLength" : 4,
            "byteOffset" : 342772
        },
        {
            "buffer" : 0,
            "byteLength" : 12,
            "byteOffset" : 342776
        },
        {
            "buffer" : 0,
            "byteLength" : 16,
            "byteOffset" : 342788
        },
        {
            "buffer" : 0,
            "byteLength" : 12,
            "byteOffset" : 342804
        },
        {
            "buffer" : 0,
            "byteLength" : 12,
            "byteOffset" : 342816
        },
        {
            "buffer" : 0,
            "byteLength" : 16,
            "byteOffset" : 342828
        },
        {
            "buffer" : 0,
            "byteLength" : 12,
            "byteOffset" : 342844
        }
    ],
    "buffers" : [
        {
            "byteLength" : 342856,
            "uri" : "data:application/octet-stream;base64,"
        }
    ]
}
